{"glyphs":{"0":{"ha":989,"x_min":0,"x_max":0,"o":"m 494 268 b 426 486 451 268 426 322 b 494 704 426 650 451 704 b 562 486 537 704 562 650 b 494 268 562 322 537 268 z m 494 -22 b 965 486 792 -22 965 156 b 494 994 965 817 792 994 b 24 486 197 994 24 817 b 494 -22 24 156 197 -22 z "},"1":{"ha":510,"x_min":0,"x_max":0,"o":"m 475 -1 l 475 974 l 240 974 b 24 793 204 891 119 805 l 17 555 l 143 555 l 93 -1 z "},"2":{"ha":814,"x_min":0,"x_max":0,"o":"m 33 536 l 49 536 b 339 614 106 575 257 614 b 396 579 374 614 396 608 b 32 337 396 528 200 429 l 32 0 l 774 0 l 774 344 l 357 314 l 357 325 b 785 650 478 351 785 394 b 392 994 785 871 643 994 b 33 886 254 994 110 947 z "},"3":{"ha":821,"x_min":0,"x_max":0,"o":"m 778 972 l 61 972 l 61 692 l 397 692 l 397 681 l 167 572 l 192 436 b 324 451 226 444 281 451 b 435 403 393 451 435 440 b 314 340 435 361 379 340 b 54 407 235 340 129 365 l 26 54 b 364 -22 99 15 225 -22 b 793 306 610 -22 793 50 b 492 542 793 496 656 546 l 492 551 l 778 683 z "},"4":{"ha":969,"x_min":0,"x_max":0,"o":"m 851 972 l 289 972 l 14 422 l 14 176 l 458 176 l 458 -1 l 851 -1 l 851 176 l 946 176 l 947 472 l 851 472 z m 337 472 l 472 729 l 493 729 l 493 472 z "},"5":{"ha":796,"x_min":0,"x_max":0,"o":"m 728 972 l 69 972 l 33 408 l 268 373 b 351 422 276 401 314 422 b 424 365 393 422 424 404 b 288 298 424 313 376 298 b 40 347 200 298 94 322 l 32 347 l 32 40 b 356 -23 104 6 254 -23 b 769 322 596 -23 769 69 b 500 606 769 555 631 606 b 322 513 392 606 338 567 l 313 513 l 336 672 l 736 672 l 728 972 z "},"6":{"ha":924,"x_min":0,"x_max":0,"o":"m 590 690 b 822 631 668 690 760 670 l 843 927 b 517 994 772 965 639 994 b 25 474 285 994 25 891 b 497 -23 25 133 199 -23 b 900 337 785 -23 900 141 b 579 617 900 533 747 617 b 386 555 497 617 432 591 l 378 555 b 590 690 378 647 475 690 z m 475 297 b 385 380 417 297 385 337 b 475 463 385 423 417 463 b 565 380 533 463 565 423 b 475 297 565 337 533 297 z "},"7":{"ha":754,"x_min":0,"x_max":0,"o":"m 69 90 b 79 -1 69 58 74 24 l 489 -1 l 489 195 b 685 641 489 411 571 542 l 685 972 l 25 972 l 25 645 l 446 643 l 446 638 b 69 90 183 606 69 258 z "},"8":{"ha":947,"x_min":0,"x_max":0,"o":"m 24 281 b 474 -23 24 45 221 -23 b 924 281 726 -23 924 45 b 704 497 924 429 801 484 l 704 506 b 890 709 786 519 890 576 b 474 990 890 919 682 990 b 57 709 265 990 57 919 b 246 506 57 576 164 519 l 246 497 b 24 281 149 484 24 429 z m 474 263 b 375 341 406 263 375 299 b 474 419 375 383 406 419 b 572 341 542 419 572 383 b 474 263 572 299 542 263 z m 474 588 b 387 665 418 588 387 624 b 474 741 387 705 418 741 b 560 665 529 741 560 705 b 474 588 560 624 529 588 z "},"9":{"ha":924,"x_min":0,"x_max":0,"o":"m 333 281 b 92 340 256 281 154 301 l 71 44 b 407 -23 142 6 279 -23 b 899 497 639 -23 899 80 b 426 994 899 838 725 994 b 24 634 139 994 24 830 b 344 354 24 438 176 354 b 537 416 426 354 492 380 l 546 416 b 333 281 546 324 449 281 z m 449 674 b 539 591 507 674 539 634 b 449 508 539 548 507 508 b 358 591 390 508 358 548 b 449 674 358 634 390 674 z "},"\u0000":{"ha":0,"x_min":0,"x_max":0,"o":""},"\n":{"ha":0,"x_min":0,"x_max":0,"o":""},"\r":{"ha":0,"x_min":0,"x_max":0,"o":""}," ":{"ha":525,"x_min":0,"x_max":0,"o":""},"!":{"ha":467,"x_min":0,"x_max":0,"o":"m 442 972 l 25 972 l 89 351 l 375 351 z m 235 -22 b 417 143 349 -22 417 44 b 235 306 417 239 349 306 b 51 143 119 306 51 239 b 235 -22 51 44 119 -22 z "},"#":{"ha":1138,"x_min":0,"x_max":0,"o":"m 125 789 l 93 564 l 268 564 l 240 425 l 65 425 l 33 200 l 197 200 l 158 0 l 392 0 l 431 200 l 590 200 l 551 0 l 785 0 l 824 200 l 1013 200 l 1044 425 l 867 425 l 894 564 l 1072 564 l 1104 789 l 938 789 l 974 972 l 740 972 l 704 789 l 544 789 l 581 972 l 347 972 l 311 789 z m 474 425 l 501 564 l 661 564 l 633 425 z "},"$":{"ha":750,"x_min":0,"x_max":0,"o":"m 407 649 b 671 579 474 649 617 611 l 678 579 l 692 847 b 504 896 646 869 572 886 l 504 994 l 250 994 l 250 892 b 28 667 118 862 28 783 b 424 382 28 397 424 456 b 353 351 424 362 379 351 b 43 435 264 351 106 383 l 33 435 l 36 135 b 250 87 76 119 162 99 l 250 -22 l 504 -22 l 504 94 b 726 333 635 126 726 207 b 329 622 726 610 329 554 b 407 649 329 644 374 649 z "},"%":{"ha":1328,"x_min":0,"x_max":0,"o":"m 317 454 b 600 725 506 454 600 563 b 317 994 600 888 506 994 b 33 725 128 994 33 888 b 317 454 33 563 128 454 z m 892 972 l 193 0 l 435 0 l 1133 972 z m 317 650 b 256 725 276 650 256 682 b 317 799 256 765 276 799 b 378 725 357 799 378 765 b 317 650 378 682 357 650 z m 1011 -22 b 1294 249 1200 -22 1294 86 b 1011 518 1294 411 1200 518 b 728 249 822 518 728 411 b 1011 -22 728 86 822 -22 z m 1011 174 b 950 249 971 174 950 206 b 1011 322 950 289 971 322 b 1072 249 1051 322 1072 289 b 1011 174 1072 206 1051 174 z "},"&":{"ha":1017,"x_min":0,"x_max":0,"o":"m 389 -22 b 636 58 489 -22 567 4 b 854 -22 689 7 769 -22 b 983 6 922 -22 957 -10 l 983 163 b 842 217 935 163 881 183 b 967 549 918 314 967 433 l 707 549 b 678 404 707 482 703 444 l 583 535 b 772 774 683 581 772 650 b 494 994 772 926 640 994 b 186 761 304 994 186 910 b 258 574 186 656 232 614 b 33 279 149 533 33 432 b 389 -22 33 97 169 -22 z m 492 256 b 432 242 479 246 451 242 b 324 337 378 242 324 282 b 376 418 324 372 346 400 l 492 256 z m 558 757 b 493 667 558 715 528 686 b 436 768 461 700 436 732 b 500 822 436 797 464 822 b 558 757 535 822 558 796 z "},"'":{"ha":413,"x_min":0,"x_max":0,"o":"m 25 832 b 165 676 25 729 90 676 b 240 695 201 676 220 681 l 252 672 b 48 622 204 633 119 622 l 55 463 l 90 463 b 387 804 292 463 387 572 b 203 1001 387 918 308 1001 b 25 832 96 1001 25 934 z "},"‘":{"ha":413,"x_min":0,"x_max":0,"o":"m 25 832 b 165 676 25 729 90 676 b 240 695 201 676 220 681 l 252 672 b 48 622 204 633 119 622 l 55 463 l 90 463 b 387 804 292 463 387 572 b 203 1001 387 918 308 1001 b 25 832 96 1001 25 934 z "},"’":{"ha":413,"x_min":0,"x_max":0,"o":"m 25 832 b 165 676 25 729 90 676 b 240 695 201 676 220 681 l 252 672 b 48 622 204 633 119 622 l 55 463 l 90 463 b 387 804 292 463 387 572 b 203 1001 387 918 308 1001 b 25 832 96 1001 25 934 z "},"(":{"ha":590,"x_min":0,"x_max":0,"o":"m 556 1043 l 275 1043 b 25 456 126 918 25 679 b 272 -121 25 235 122 10 l 543 -121 b 322 456 428 15 322 226 b 556 1043 322 683 431 910 z "},")":{"ha":589,"x_min":0,"x_max":0,"o":"m 314 1043 l 33 1043 b 267 456 158 910 267 683 b 46 -121 267 226 161 15 l 317 -121 b 564 456 467 10 564 235 b 314 1043 564 679 462 918 z "},"*":{"ha":574,"x_min":0,"x_max":0,"o":"m 554 758 l 502 848 l 450 938 l 334 805 l 390 972 l 183 972 l 240 805 l 123 938 l 71 848 l 19 758 l 193 724 l 19 689 l 71 599 l 123 509 l 240 642 l 183 475 l 390 475 l 334 642 l 450 509 l 502 599 l 554 689 l 381 724 z "},"+":{"ha":829,"x_min":0,"x_max":0,"o":"m 276 833 l 276 575 l 18 575 l 18 299 l 276 299 l 276 40 l 553 40 l 553 299 l 811 299 l 811 575 l 553 575 l 553 833 z "},",":{"ha":449,"x_min":0,"x_max":0,"o":"m 179 -6 b 262 15 219 -6 240 0 l 275 -10 b 49 -65 222 -53 128 -65 l 57 -242 l 96 -242 b 425 136 319 -242 425 -121 b 221 356 425 263 337 356 b 24 168 103 356 24 281 b 179 -6 24 53 96 -6 z "},"-":{"ha":506,"x_min":0,"x_max":0,"o":"m 25 602 l 25 310 l 480 310 l 480 602 z "},".":{"ha":440,"x_min":0,"x_max":0,"o":"m 221 -22 b 417 168 337 -22 417 53 b 221 356 417 279 337 356 b 24 168 104 356 24 281 b 221 -22 24 54 103 -22 z "},"/":{"ha":839,"x_min":0,"x_max":0,"o":"m 432 1036 l 33 -257 l 407 -257 l 806 1036 z "},":":{"ha":449,"x_min":0,"x_max":0,"o":"m 225 443 b 421 633 342 443 421 518 b 225 821 421 746 342 821 b 28 633 107 821 28 746 b 225 443 28 518 107 443 z m 225 -22 b 421 168 342 -22 421 53 b 225 356 421 281 342 356 b 28 168 107 356 28 281 b 225 -22 28 53 107 -22 z "},";":{"ha":457,"x_min":0,"x_max":0,"o":"m 225 443 b 421 633 342 443 421 518 b 225 821 421 746 342 821 b 28 633 107 821 28 746 b 225 443 28 518 107 443 z m 28 168 b 183 -6 28 53 100 -6 b 267 15 224 -6 244 0 l 279 -10 b 53 -65 226 -53 132 -65 l 61 -242 l 100 -242 b 429 136 324 -242 429 -121 b 225 356 429 263 342 356 b 28 168 107 356 28 281 z "},"<":{"ha":849,"x_min":0,"x_max":0,"o":"m 25 606 l 25 272 l 818 82 l 818 362 l 289 439 l 818 512 l 818 796 z "},"=":{"ha":851,"x_min":0,"x_max":0,"o":"m 29 468 l 822 468 l 822 731 l 29 731 z m 29 144 l 822 144 l 822 407 l 29 407 z "},">":{"ha":849,"x_min":0,"x_max":0,"o":"m 824 606 l 31 796 l 31 512 l 560 439 l 31 362 l 31 82 l 824 272 z "},"?":{"ha":914,"x_min":0,"x_max":0,"o":"m 338 576 b 439 668 338 635 385 668 b 521 606 486 668 521 646 b 281 340 521 471 281 540 l 585 340 b 881 678 585 436 881 422 b 458 1001 881 882 679 1001 b 33 651 238 1001 33 871 l 33 576 z m 435 -22 b 617 143 549 -22 617 44 b 435 306 617 239 549 306 b 251 143 319 306 251 239 b 435 -22 251 44 319 -22 z "},"@":{"ha":1040,"x_min":0,"x_max":0,"o":"m 22 394 b 525 -100 22 61 253 -100 b 761 -54 626 -100 714 -75 l 747 121 b 554 68 690 85 615 68 b 242 408 356 68 242 215 b 617 812 242 640 410 812 b 868 546 790 812 868 671 b 789 358 868 460 833 358 b 787 558 761 358 787 489 b 593 724 787 662 699 724 b 308 385 407 724 308 540 b 489 163 308 229 394 163 b 639 231 550 163 601 186 b 760 163 647 190 686 163 b 1021 575 890 163 1021 325 b 596 994 1021 825 861 994 b 22 394 299 994 22 743 z m 544 339 b 501 410 512 339 501 368 b 597 556 501 482 533 556 b 626 524 614 556 626 540 b 544 339 626 447 594 339 z "},"A":{"ha":960,"x_min":0,"x_max":0,"o":"m 211 972 l -10 0 l 390 0 l 422 282 l 535 282 l 567 0 l 969 0 l 750 972 z m 429 349 l 468 685 l 492 685 l 528 349 z "},"B":{"ha":954,"x_min":0,"x_max":0,"o":"m 35 972 l 35 0 l 576 0 b 947 296 786 0 947 82 b 731 533 947 454 849 533 l 731 554 b 901 739 808 560 901 599 b 558 972 901 904 744 972 z m 553 624 b 482 553 553 581 526 553 l 435 553 l 435 694 l 482 694 b 553 624 526 694 553 667 z m 585 404 b 485 318 585 346 543 318 l 435 318 l 435 490 l 485 490 b 585 404 543 490 585 463 z "},"C":{"ha":949,"x_min":0,"x_max":0,"o":"m 497 -22 b 921 61 683 -22 822 19 l 908 474 l 892 474 b 593 408 810 440 682 408 b 426 500 515 408 426 425 b 589 579 426 567 511 579 b 892 518 675 579 814 550 l 903 518 l 924 912 b 521 994 842 953 683 994 b 7 486 206 994 7 817 b 497 -22 7 156 179 -22 z "},"D":{"ha":975,"x_min":0,"x_max":0,"o":"m 969 486 b 471 972 968 788 768 972 l 35 972 l 35 0 l 483 0 b 969 486 794 0 971 211 z m 436 306 l 436 681 b 557 494 514 681 557 606 b 436 306 557 383 513 306 z "},"E":{"ha":843,"x_min":0,"x_max":0,"o":"m 35 972 l 35 0 l 828 0 l 828 351 l 436 351 l 436 418 l 742 418 l 742 587 l 436 587 l 436 663 l 789 663 l 789 972 z "},"F":{"ha":803,"x_min":0,"x_max":0,"o":"m 35 972 l 35 0 l 436 0 l 436 375 l 732 375 l 732 560 l 436 560 l 436 654 l 800 654 l 800 972 z "},"G":{"ha":1024,"x_min":0,"x_max":0,"o":"m 661 0 l 1006 0 l 1006 518 l 515 518 l 515 500 l 625 435 l 625 424 b 532 397 600 408 564 397 b 429 487 472 397 429 428 b 617 592 429 558 511 592 b 908 556 703 592 825 581 l 919 556 l 944 914 b 526 994 857 949 689 994 b 7 485 211 994 7 815 b 410 -22 7 137 204 -22 b 653 340 612 -22 646 199 l 668 340 l 661 0 z "},"H":{"ha":996,"x_min":0,"x_max":0,"o":"m 35 972 l 35 0 l 436 0 l 436 375 l 560 375 l 560 0 l 961 0 l 961 972 l 560 972 l 560 606 l 436 606 l 436 972 z "},"I":{"ha":471,"x_min":0,"x_max":0,"o":"m 35 972 l 35 0 l 436 0 l 436 972 z "},"J":{"ha":782,"x_min":0,"x_max":0,"o":"m 354 972 l 354 574 b 257 486 354 525 312 486 b 65 540 192 486 126 514 l -4 100 b 367 -22 68 32 228 -22 b 756 337 592 -22 756 112 l 756 972 z "},"K":{"ha":956,"x_min":0,"x_max":0,"o":"m 35 972 l 35 0 l 436 0 l 436 425 b 533 229 501 424 533 321 l 536 0 l 944 0 l 944 78 b 647 519 944 303 906 519 l 517 519 l 517 531 b 922 914 739 540 922 631 l 922 972 l 553 972 b 436 586 543 829 504 671 l 436 972 z "},"L":{"ha":743,"x_min":0,"x_max":0,"o":"m 35 972 l 35 0 l 744 0 l 744 369 l 436 369 l 436 972 z "},"M":{"ha":1213,"x_min":0,"x_max":0,"o":"m 35 972 l 35 0 l 417 0 l 417 543 l 506 187 l 690 187 l 796 578 l 796 0 l 1178 0 l 1178 972 l 710 972 l 594 581 l 490 972 z "},"N":{"ha":1057,"x_min":0,"x_max":0,"o":"m 417 415 l 675 0 l 1022 0 l 1022 972 l 640 972 l 640 593 l 404 972 l 35 972 l 35 0 l 417 0 l 417 415 z "},"O":{"ha":1081,"x_min":0,"x_max":0,"o":"m 540 -22 b 1074 486 897 -22 1074 156 b 540 994 1074 817 897 994 b 7 486 183 994 7 817 b 540 -22 7 156 183 -22 z m 540 319 b 437 486 472 319 437 378 b 540 653 437 594 472 653 b 643 486 608 653 643 594 b 540 319 643 378 608 319 z "},"P":{"ha":965,"x_min":0,"x_max":0,"o":"m 968 632 b 583 972 968 835 832 972 l 35 972 l 35 0 l 435 0 l 435 261 l 526 261 b 968 632 721 261 968 371 z m 447 471 l 435 471 l 435 688 l 451 688 b 546 579 510 688 546 637 b 447 471 546 521 506 471 z "},"Q":{"ha":1082,"x_min":0,"x_max":0,"o":"m 7 486 b 540 -22 7 156 183 -22 l 561 -22 l 631 -186 l 1060 -49 b 689 158 1049 143 874 158 l 689 189 b 908 174 764 189 832 174 b 1074 486 1003 174 1074 390 b 540 994 1074 817 897 994 b 7 486 183 994 7 817 z m 540 319 b 437 486 472 319 437 378 b 540 653 437 594 472 653 b 643 486 608 653 643 594 b 540 319 643 378 608 319 z "},"R":{"ha":997,"x_min":0,"x_max":0,"o":"m 561 600 b 453 492 561 536 514 492 l 435 492 l 435 708 l 457 708 b 561 600 518 708 561 664 z m 539 972 l 35 972 l 35 0 l 435 0 l 435 364 b 512 117 487 354 506 206 l 522 0 l 1000 0 l 972 99 b 593 399 913 306 825 399 l 593 419 l 594 419 b 950 676 803 419 950 467 b 539 972 950 862 787 972 z "},"S":{"ha":772,"x_min":0,"x_max":0,"o":"m 689 618 l 697 618 l 697 957 b 407 996 593 983 497 996 b 31 694 161 996 31 879 b 445 357 31 346 445 454 b 386 318 445 325 416 318 b 38 449 276 318 104 389 l 24 450 l 24 40 b 387 -22 96 13 247 -22 b 766 288 622 -22 766 85 b 390 631 766 599 390 547 b 461 668 390 659 420 668 b 689 618 530 668 634 640 z "},"T":{"ha":763,"x_min":0,"x_max":0,"o":"m 767 972 l -4 972 l -4 646 l 181 646 l 181 0 l 582 0 l 582 646 l 767 646 z "},"U":{"ha":981,"x_min":0,"x_max":0,"o":"m 24 972 l 24 422 b 490 -22 24 124 192 -22 b 957 422 789 -22 957 124 l 957 972 l 556 972 l 556 439 b 490 354 556 392 539 354 b 425 439 442 354 425 392 l 425 972 z "},"V":{"ha":967,"x_min":0,"x_max":0,"o":"m -11 972 l 215 0 l 763 0 l 978 972 l 554 972 l 483 315 l 413 972 z "},"W":{"ha":1382,"x_min":0,"x_max":0,"o":"m -6 972 l 163 0 l 612 0 l 692 511 l 772 0 l 1226 0 l 1386 972 l 965 972 l 939 397 l 857 972 l 538 972 l 456 393 l 429 972 z "},"X":{"ha":1011,"x_min":0,"x_max":0,"o":"m 825 488 l 983 972 l 596 972 l 525 578 l 454 972 l 21 972 l 190 477 l -10 0 l 410 0 l 476 363 l 561 0 l 1019 0 z "},"Y":{"ha":888,"x_min":0,"x_max":0,"o":"m -17 972 l 193 318 l 315 313 l 144 0 l 601 0 l 904 972 l 542 972 l 471 463 l 410 972 z "},"Z":{"ha":815,"x_min":0,"x_max":0,"o":"m 32 972 l 32 642 l 286 640 l 21 329 l 21 0 l 792 0 l 792 328 l 472 328 l 796 703 l 794 972 z "},"[":{"ha":590,"x_min":0,"x_max":0,"o":"m 35 994 l 35 -22 l 562 -22 l 562 261 l 389 261 l 389 711 l 562 711 l 562 994 z "},"\\":{"ha":839,"x_min":0,"x_max":0,"o":"m 407 1036 l 33 1036 l 432 -257 l 806 -257 z "},"]":{"ha":590,"x_min":0,"x_max":0,"o":"m 28 994 l 28 711 l 201 711 l 201 261 l 28 261 l 28 -22 l 556 -22 l 556 994 z "},"^":{"ha":1040,"x_min":0,"x_max":0,"o":"m 297 972 l 33 418 l 458 418 l 525 728 l 590 418 l 1007 418 l 743 972 z "},"_":{"ha":792,"x_min":0,"x_max":0,"o":"m 35 -49 l 35 -190 l 756 -190 l 756 -49 z "},"a":{"ha":951,"x_min":0,"x_max":0,"o":"m 537 799 l 537 601 b 294 821 504 739 426 821 b 14 399 112 821 14 662 b 290 -22 14 135 118 -22 b 537 206 424 -22 503 65 l 537 0 l 918 0 l 918 799 z m 468 300 b 399 399 422 300 399 342 b 468 497 399 457 422 497 b 537 399 514 497 537 457 b 468 300 537 342 514 300 z "},"b":{"ha":951,"x_min":0,"x_max":0,"o":"m 414 566 l 414 972 l 33 972 l 33 0 l 414 0 l 414 239 b 651 -22 443 83 521 -22 b 937 400 833 -22 937 136 b 661 821 937 664 833 821 b 414 566 519 821 443 722 z m 483 300 b 414 398 438 300 414 341 b 483 497 414 457 438 497 b 553 398 529 497 553 457 b 483 300 553 341 529 300 z "},"c":{"ha":761,"x_min":0,"x_max":0,"o":"m 444 -22 b 732 37 561 -22 669 10 l 725 378 l 706 378 b 501 325 656 350 560 325 b 367 398 424 325 367 355 b 483 468 367 443 411 468 b 706 426 544 468 664 443 l 724 426 l 733 768 b 435 821 674 794 533 821 b 8 398 157 821 8 662 b 444 -22 8 135 168 -22 z "},"d":{"ha":951,"x_min":0,"x_max":0,"o":"m 537 972 l 537 601 b 294 821 504 739 426 821 b 14 398 112 821 14 662 b 290 -22 14 135 118 -22 b 538 205 424 -22 503 65 l 538 0 l 918 0 l 918 972 z m 468 300 b 399 398 422 300 399 341 b 468 497 399 457 422 497 b 538 398 514 497 538 457 b 468 300 538 341 514 300 z "},"e":{"ha":832,"x_min":0,"x_max":0,"o":"m 8 398 b 425 -22 8 135 176 -22 b 797 101 564 -22 732 46 l 799 421 l 779 421 b 526 357 724 385 593 357 b 367 444 443 357 371 387 l 804 444 b 817 546 810 469 817 511 b 435 821 817 700 668 821 b 8 398 186 821 8 662 z m 471 501 l 357 501 l 357 512 b 424 572 357 541 381 572 b 475 528 453 572 475 554 b 471 501 475 519 475 511 z "},"f":{"ha":599,"x_min":0,"x_max":0,"o":"m 86 479 l 86 0 l 467 0 l 467 479 l 593 479 l 593 799 l 460 799 b 425 824 444 799 425 806 b 464 852 425 840 436 852 l 599 851 l 599 1122 l 386 1122 b 89 852 185 1122 91 1003 l 89 799 l 11 799 l 11 479 l 86 479 z "},"g":{"ha":797,"x_min":0,"x_max":0,"o":"m 401 229 b 783 525 667 229 783 339 b 538 804 783 658 688 764 l 542 812 b 710 751 597 815 668 782 l 754 944 b 642 962 719 955 685 962 b 411 821 504 962 437 898 l 401 821 b 19 525 136 821 19 710 b 150 286 19 414 68 335 l 29 272 l 29 -163 b 317 -156 103 -159 226 -156 b 754 -184 424 -156 639 -168 b 789 -29 772 -153 789 -93 b 396 203 789 130 658 203 b 122 246 189 203 122 211 l 228 253 b 401 229 278 237 337 229 z m 401 437 b 346 525 363 437 346 471 b 401 611 346 579 363 611 b 457 525 440 611 457 579 b 401 437 457 471 440 437 z "},"h":{"ha":943,"x_min":0,"x_max":0,"o":"m 33 972 l 33 0 l 414 0 l 414 447 b 476 504 415 479 444 504 b 532 448 510 504 532 481 l 532 0 l 913 0 l 913 615 b 701 821 913 740 826 821 b 414 590 533 821 435 703 l 414 972 z "},"i":{"ha":447,"x_min":0,"x_max":0,"o":"m 33 972 l 33 847 l 414 847 l 414 972 z m 33 798 l 33 0 l 414 0 l 414 798 z "},"j":{"ha":447,"x_min":0,"x_max":0,"o":"m 33 16 b -40 -54 33 -40 -3 -54 b -125 -35 -74 -54 -103 -47 l -125 -335 b -33 -346 -110 -339 -64 -346 b 414 14 243 -346 414 -240 l 414 798 l 33 798 z m 33 847 l 414 847 l 414 972 l 33 972 z "},"k":{"ha":960,"x_min":0,"x_max":0,"o":"m 518 148 l 518 3 l 943 3 l 943 165 b 596 432 943 376 753 432 l 539 432 l 539 451 l 593 451 b 942 739 821 451 942 555 l 942 801 l 539 801 l 539 765 b 414 555 539 673 492 575 l 414 972 l 33 972 l 33 0 l 414 0 l 414 378 b 518 148 493 347 518 246 z "},"l":{"ha":447,"x_min":0,"x_max":0,"o":"m 33 972 l 33 0 l 414 0 l 414 972 z "},"m":{"ha":1419,"x_min":0,"x_max":0,"o":"m 33 799 l 33 0 l 414 0 l 414 447 b 472 504 415 479 440 504 b 524 448 501 504 524 481 l 524 0 l 904 0 l 904 447 b 960 504 906 479 931 504 b 1008 448 986 504 1008 481 l 1008 0 l 1389 0 l 1389 615 b 1178 821 1389 740 1303 821 b 904 597 1013 821 928 714 l 904 615 b 693 821 904 740 818 821 b 414 590 525 821 435 707 l 414 799 z "},"n":{"ha":943,"x_min":0,"x_max":0,"o":"m 33 799 l 33 0 l 414 0 l 414 447 b 476 504 415 479 444 504 b 532 448 510 504 532 481 l 532 0 l 913 0 l 913 615 b 701 821 913 740 826 821 b 414 590 533 821 435 707 l 414 799 z "},"o":{"ha":939,"x_min":0,"x_max":0,"o":"m 469 -22 b 931 398 775 -22 931 135 b 469 821 931 662 775 821 b 8 398 164 821 8 662 b 469 -22 8 135 164 -22 z m 469 275 b 389 398 415 275 389 322 b 469 522 389 476 415 522 b 550 398 524 522 550 476 b 469 275 550 322 524 275 z "},"p":{"ha":951,"x_min":0,"x_max":0,"o":"m 414 -154 l 414 197 b 657 -22 447 60 525 -22 b 938 400 839 -22 938 136 b 661 821 938 664 833 821 b 414 593 528 821 449 733 l 414 798 l 33 798 l 33 -154 z m 483 498 b 553 400 529 498 553 457 b 483 301 553 341 529 301 b 414 400 438 301 414 341 b 483 498 414 457 438 498 z "},"q":{"ha":951,"x_min":0,"x_max":0,"o":"m 537 232 l 537 -154 l 918 -154 l 918 798 l 537 798 l 537 560 b 300 821 508 715 431 821 b 14 398 118 821 14 662 b 290 -22 14 135 118 -22 b 538 232 432 -22 508 76 z m 468 498 b 538 400 514 498 538 457 b 468 301 538 341 514 301 b 399 400 422 301 399 341 b 468 498 399 457 422 498 z "},"r":{"ha":688,"x_min":0,"x_max":0,"o":"m 678 396 l 678 799 l 588 799 b 395 590 478 799 404 714 l 395 799 l 33 799 l 33 0 l 414 0 l 414 340 b 470 396 414 373 435 396 l 678 396 z "},"s":{"ha":736,"x_min":0,"x_max":0,"o":"m 682 480 l 682 762 b 376 821 613 796 491 821 b 22 563 190 821 22 743 b 392 305 22 279 392 377 b 295 265 392 266 336 265 b 26 349 209 265 94 299 l 26 32 b 349 -22 108 -1 220 -22 b 724 234 568 -22 724 60 b 356 495 724 521 356 426 b 452 532 356 528 405 532 b 682 480 523 532 627 510 z "},"t":{"ha":682,"x_min":0,"x_max":0,"o":"m 102 271 b 422 0 102 99 207 0 b 653 15 502 0 588 6 l 653 331 b 558 326 630 328 595 326 b 482 378 508 326 482 335 l 482 479 l 649 479 l 649 799 l 457 799 l 457 986 l 102 986 l 102 799 l 7 799 l 7 479 l 102 479 z "},"u":{"ha":942,"x_min":0,"x_max":0,"o":"m 908 0 l 908 798 l 528 798 l 528 344 b 465 287 526 312 497 287 b 410 343 432 287 410 310 l 410 798 l 29 798 l 29 183 b 240 -22 29 58 115 -22 b 528 208 408 -22 507 96 l 528 0 z "},"v":{"ha":847,"x_min":0,"x_max":0,"o":"m 493 798 l 442 282 l 417 282 l 367 798 l -7 798 l 169 0 l 664 0 l 856 798 z "},"w":{"ha":1307,"x_min":0,"x_max":0,"o":"m 458 798 l 386 336 l 379 336 l 350 798 l -3 798 l 142 0 l 572 0 l 644 453 l 719 0 l 1149 0 l 1311 798 l 943 798 l 924 347 l 914 347 l 839 798 z "},"x":{"ha":1007,"x_min":0,"x_max":0,"o":"m 804 411 l 1007 799 l 601 799 l 525 533 l 444 799 l 19 799 l 212 415 l -10 0 l 406 0 l 499 297 l 506 297 l 590 0 l 1013 0 z "},"y":{"ha":908,"x_min":0,"x_max":0,"o":"m 919 798 l 515 798 l 443 276 l 426 276 l 376 798 l -8 798 l 136 232 b 218 139 144 194 168 139 b 322 180 253 139 300 158 l 333 171 l 163 -157 l 640 -157 z "},"z":{"ha":879,"x_min":0,"x_max":0,"o":"m 36 430 b 463 514 143 446 340 462 l 469 500 b 28 332 369 447 169 365 l 28 0 l 846 0 l 846 351 l 354 287 l 354 304 b 853 508 494 333 753 447 l 853 798 l 36 798 z "},"{":{"ha":561,"x_min":0,"x_max":0,"o":"m 136 821 l 136 728 b 68 660 136 687 108 660 l 22 660 l 22 312 l 68 312 b 136 244 108 312 136 285 l 136 151 b 310 -22 136 43 201 -22 l 528 -22 l 528 244 b 292 486 528 402 425 481 b 528 714 424 490 528 556 l 528 994 l 310 994 b 136 821 201 994 136 929 z "},"|":{"ha":419,"x_min":0,"x_max":0,"o":"m 35 1036 l 35 -257 l 385 -257 l 385 1036 z "},"}":{"ha":561,"x_min":0,"x_max":0,"o":"m 424 244 b 492 312 424 285 452 312 l 538 312 l 538 660 l 492 660 b 424 728 452 660 424 687 l 424 821 b 250 994 424 929 359 994 l 32 994 l 32 728 b 268 486 32 570 135 492 b 32 258 136 482 32 416 l 32 -22 l 250 -22 b 424 151 359 -22 424 43 z "}," ":{"ha":525,"x_min":0,"x_max":0,"o":""},"¡":{"ha":436,"x_min":0,"x_max":0,"o":"m 215 493 b 399 656 331 493 399 560 b 215 821 399 754 331 821 b 33 656 101 821 33 754 b 215 493 33 560 101 493 z m 361 447 l 75 447 l 8 -174 l 425 -174 z "},"¢":{"ha":793,"x_min":0,"x_max":0,"o":"m 750 504 l 737 504 b 495 451 670 477 567 451 b 359 525 431 451 359 464 b 491 589 359 579 428 589 b 737 540 561 589 673 565 l 746 540 l 762 859 b 569 915 719 881 649 903 l 569 1017 l 315 1017 l 315 913 b 19 514 131 873 19 736 b 315 110 19 284 122 145 l 315 0 l 569 0 l 569 114 b 760 169 646 127 710 148 z "},"£":{"ha":956,"x_min":0,"x_max":0,"o":"m 537 344 b 490 413 513 368 498 389 l 728 413 l 728 527 l 480 527 b 597 625 489 579 539 625 b 727 585 651 625 687 615 l 743 585 l 743 920 b 475 994 669 979 571 994 b 112 650 263 994 112 846 b 122 527 112 607 116 566 l 52 527 l 52 413 l 151 413 b 187 336 161 385 173 359 l 187 325 l 25 356 l 25 0 l 827 0 l 922 344 z "},"¥":{"ha":988,"x_min":0,"x_max":0,"o":"m 954 972 l 592 972 l 521 462 l 460 972 l 33 972 l 243 319 l 137 319 l 137 273 l 343 273 l 324 237 l 137 237 l 137 191 l 299 191 l 194 0 l 651 0 l 711 191 l 891 191 l 891 237 l 725 237 l 736 273 l 891 273 l 891 319 l 751 319 z "},"©":{"ha":547,"x_min":0,"x_max":0,"o":"m 290 781 b 378 763 315 781 356 773 l 381 763 l 388 878 b 270 902 364 890 318 902 b 120 754 178 902 120 850 b 263 606 120 658 171 606 b 387 630 318 606 358 618 l 383 750 l 378 750 b 291 731 354 741 317 731 b 243 758 269 731 243 736 b 290 781 243 778 267 781 z m 273 994 b 25 754 105 994 25 910 b 273 514 25 598 105 514 b 522 750 442 514 522 594 b 273 994 522 907 442 994 z m 273 562 b 80 754 139 562 80 629 b 273 946 80 879 139 946 b 467 750 408 946 467 875 b 273 562 467 626 408 562 z "},"­":{"ha":0,"x_min":0,"x_max":0,"o":""},"®":{"ha":547,"x_min":0,"x_max":0,"o":"m 273 994 b 25 754 105 994 25 910 b 273 514 25 598 105 514 b 522 750 442 514 522 594 b 273 994 522 907 442 994 z m 273 562 b 80 754 139 562 80 629 b 273 946 80 879 139 946 b 467 750 408 946 467 875 b 273 562 467 626 408 562 z m 306 735 b 410 810 367 735 410 748 b 290 896 410 864 363 896 l 143 896 l 143 612 l 260 612 l 260 718 b 283 646 275 716 283 672 l 283 612 l 408 612 l 408 635 b 306 729 408 701 374 729 l 306 735 z m 265 756 l 260 756 l 260 819 l 266 819 b 297 787 284 819 297 806 b 265 756 297 769 283 756 z "},"µ":{"ha":946,"x_min":0,"x_max":0,"o":"m 532 799 l 532 344 b 469 287 531 312 501 287 b 414 343 436 287 414 310 l 414 799 l 33 799 l 33 -154 l 414 -154 l 414 28 b 532 208 480 72 520 141 l 532 0 l 913 0 l 913 799 z "},"¿":{"ha":914,"x_min":0,"x_max":0,"o":"m 479 493 b 662 656 594 493 662 560 b 479 821 662 754 594 821 b 297 656 365 821 297 754 b 479 493 297 560 365 493 z m 576 222 b 475 131 576 164 529 131 b 393 193 428 131 393 153 b 633 458 393 328 633 258 l 329 458 b 33 121 329 362 33 376 b 456 -203 33 -83 235 -203 b 881 147 676 -203 881 -72 l 881 222 z "},"À":{"ha":961,"x_min":0,"x_max":0,"o":"m 750 972 l 211 972 l -10 0 l 390 0 l 422 282 l 535 282 l 567 0 l 969 0 z m 429 349 l 468 685 l 492 685 l 528 349 z m 735 1020 l 606 1300 l 221 1300 l 459 1020 z "},"Á":{"ha":961,"x_min":0,"x_max":0,"o":"m 750 972 l 211 972 l -10 0 l 390 0 l 422 282 l 535 282 l 567 0 l 969 0 z m 429 349 l 468 685 l 492 685 l 528 349 z m 739 1300 l 353 1300 l 224 1020 l 501 1020 z "},"Â":{"ha":961,"x_min":0,"x_max":0,"o":"m 750 972 l 211 972 l -10 0 l 390 0 l 422 282 l 535 282 l 567 0 l 969 0 z m 429 349 l 468 685 l 492 685 l 528 349 z m 480 1139 l 536 1020 l 840 1020 l 654 1300 l 313 1300 l 120 1020 l 423 1020 z "},"Ã":{"ha":961,"x_min":0,"x_max":0,"o":"m 750 972 l 211 972 l -10 0 l 390 0 l 422 282 l 535 282 l 567 0 l 969 0 z m 429 349 l 468 685 l 492 685 l 528 349 z m 371 1046 b 410 1081 371 1065 383 1081 b 616 1022 459 1081 498 1022 b 813 1208 733 1022 813 1104 l 813 1294 l 585 1294 l 585 1283 b 548 1240 585 1263 581 1240 b 348 1300 499 1240 455 1300 b 147 1108 215 1300 147 1223 l 147 1028 l 371 1028 z "},"Ä":{"ha":961,"x_min":0,"x_max":0,"o":"m 750 972 l 211 972 l -10 0 l 390 0 l 422 282 l 535 282 l 567 0 l 969 0 z m 429 349 l 468 685 l 492 685 l 528 349 z m 311 1022 b 457 1161 408 1022 457 1071 b 311 1300 457 1251 408 1300 b 165 1161 213 1300 165 1251 b 311 1022 165 1071 213 1022 z m 649 1022 b 795 1161 746 1022 795 1071 b 649 1300 795 1251 746 1300 b 503 1161 551 1300 503 1251 b 649 1022 503 1071 551 1022 z "},"Å":{"ha":961,"x_min":0,"x_max":0,"o":"m 750 972 l 211 972 l -10 0 l 390 0 l 422 282 l 535 282 l 567 0 l 969 0 z m 429 349 l 468 685 l 492 685 l 528 349 z m 480 1017 b 676 1204 611 1017 676 1083 b 480 1391 676 1326 611 1391 b 284 1204 349 1391 284 1326 b 480 1017 284 1083 349 1017 z m 480 1249 b 526 1204 511 1249 526 1233 b 480 1160 526 1176 511 1160 b 433 1204 449 1160 433 1176 b 480 1249 433 1233 449 1249 z "},"Æ":{"ha":1307,"x_min":0,"x_max":0,"o":"m 899 351 l 899 418 l 1204 418 l 1204 587 l 899 587 l 899 662 l 1252 662 l 1252 972 l 497 972 l 497 972 l 210 972 l -11 0 l 389 0 l 421 282 l 497 282 l 497 0 l 1290 0 l 1290 351 z m 497 349 l 428 349 l 467 685 l 497 685 z "},"Ç":{"ha":840,"x_min":0,"x_max":0,"o":"m 589 579 b 808 546 649 579 735 565 l 808 955 b 521 995 726 978 624 995 b 7 486 206 995 7 817 b 349 -7 7 211 126 42 l 283 -99 l 427 -154 b 453 -140 433 -145 442 -140 b 479 -164 468 -140 479 -151 b 454 -190 479 -177 470 -190 b 431 -169 441 -190 431 -183 l 246 -169 b 456 -299 246 -239 292 -299 b 669 -168 619 -299 669 -242 b 524 -56 669 -93 615 -56 l 562 -20 b 808 21 658 -15 739 1 l 808 445 b 593 409 737 424 655 409 b 426 500 515 409 426 425 b 589 579 426 567 511 579 z "},"È":{"ha":843,"x_min":0,"x_max":0,"o":"m 436 351 l 436 418 l 742 418 l 742 587 l 436 587 l 436 663 l 789 663 l 789 972 l 35 972 l 35 0 l 828 0 l 828 351 z m 689 1300 l 303 1300 l 174 1020 l 451 1020 z "},"É":{"ha":843,"x_min":0,"x_max":0,"o":"m 436 351 l 436 418 l 742 418 l 742 587 l 436 587 l 436 663 l 789 663 l 789 972 l 35 972 l 35 0 l 828 0 l 828 351 z m 613 1020 l 484 1300 l 98 1300 l 336 1020 z "},"Ê":{"ha":843,"x_min":0,"x_max":0,"o":"m 436 351 l 436 418 l 742 418 l 742 587 l 436 587 l 436 663 l 789 663 l 789 972 l 35 972 l 35 0 l 828 0 l 828 351 z m 431 1139 l 488 1020 l 791 1020 l 606 1300 l 265 1300 l 71 1020 l 375 1020 z "},"Ë":{"ha":843,"x_min":0,"x_max":0,"o":"m 436 351 l 436 418 l 742 418 l 742 587 l 436 587 l 436 663 l 789 663 l 789 972 l 35 972 l 35 0 l 828 0 l 828 351 z m 262 1022 b 408 1161 360 1022 408 1071 b 262 1300 408 1251 360 1300 b 117 1161 165 1300 117 1251 b 262 1022 117 1071 165 1022 z m 600 1022 b 746 1161 698 1022 746 1071 b 600 1300 746 1251 698 1300 b 454 1161 503 1300 454 1251 b 600 1022 454 1071 503 1022 z "},"Ì":{"ha":471,"x_min":0,"x_max":0,"o":"m 436 0 l 436 972 l 35 972 l 35 0 z m 430 1020 l 301 1300 l -85 1300 l 153 1020 z "},"Í":{"ha":471,"x_min":0,"x_max":0,"o":"m 436 0 l 436 972 l 35 972 l 35 0 z m 549 1300 l 164 1300 l 35 1020 l 311 1020 z "},"Î":{"ha":471,"x_min":0,"x_max":0,"o":"m 436 0 l 436 972 l 35 972 l 35 0 z m 235 1139 l 292 1020 l 595 1020 l 410 1300 l 69 1300 l -125 1020 l 179 1020 z "},"Ï":{"ha":472,"x_min":0,"x_max":0,"o":"m 436 0 l 436 972 l 35 972 l 35 0 z m 212 1161 b 67 1300 212 1251 164 1300 b -79 1161 -31 1300 -79 1251 b 67 1022 -79 1071 -31 1022 b 212 1161 164 1022 212 1071 z m 404 1300 b 259 1161 307 1300 259 1251 b 404 1022 259 1071 307 1022 b 550 1161 502 1022 550 1071 b 404 1300 550 1251 502 1300 z "},"Ð":{"ha":1007,"x_min":0,"x_max":0,"o":"m 68 972 l 68 589 l 8 589 l 8 405 l 68 405 l 68 0 l 517 0 b 1003 486 828 0 1004 211 b 504 972 1001 787 801 972 z m 469 305 l 469 405 l 536 405 l 536 589 l 469 589 l 469 680 b 594 494 547 680 594 605 b 469 305 594 383 546 305 z "},"Ñ":{"ha":1058,"x_min":0,"x_max":0,"o":"m 640 972 l 640 593 l 404 972 l 35 972 l 35 0 l 417 0 l 417 415 l 675 0 l 1022 0 l 1022 972 z m 420 1046 b 458 1081 420 1065 432 1081 b 664 1022 507 1081 546 1022 b 861 1208 782 1022 861 1104 l 861 1294 l 634 1294 l 634 1283 b 596 1240 634 1263 630 1240 b 397 1300 548 1240 504 1300 b 196 1108 263 1300 196 1223 l 196 1028 l 420 1028 z "},"Ò":{"ha":1081,"x_min":0,"x_max":0,"o":"m 540 994 b 7 486 183 994 7 817 b 540 -22 7 156 183 -22 b 1074 486 897 -22 1074 156 b 540 994 1074 817 897 994 z m 540 319 b 437 486 472 319 437 378 b 540 653 437 594 472 653 b 643 486 608 653 643 594 b 540 319 643 378 608 319 z m 722 1020 l 593 1300 l 207 1300 l 445 1020 z "},"Ó":{"ha":1081,"x_min":0,"x_max":0,"o":"m 540 994 b 7 486 183 994 7 817 b 540 -22 7 156 183 -22 b 1074 486 897 -22 1074 156 b 540 994 1074 817 897 994 z m 540 319 b 437 486 472 319 437 378 b 540 653 437 594 472 653 b 643 486 608 653 643 594 b 540 319 643 378 608 319 z m 925 1300 l 540 1300 l 411 1020 l 688 1020 z "},"Ô":{"ha":1081,"x_min":0,"x_max":0,"o":"m 540 994 b 7 486 183 994 7 817 b 540 -22 7 156 183 -22 b 1074 486 897 -22 1074 156 b 540 994 1074 817 897 994 z m 540 319 b 437 486 472 319 437 378 b 540 653 437 594 472 653 b 643 486 608 653 643 594 b 540 319 643 378 608 319 z m 540 1139 l 597 1020 l 901 1020 l 715 1300 l 374 1300 l 180 1020 l 484 1020 z "},"Õ":{"ha":1081,"x_min":0,"x_max":0,"o":"m 540 994 b 7 486 183 994 7 817 b 540 -22 7 156 183 -22 b 1074 486 897 -22 1074 156 b 540 994 1074 817 897 994 z m 540 319 b 437 486 472 319 437 378 b 540 653 437 594 472 653 b 643 486 608 653 643 594 b 540 319 643 378 608 319 z m 432 1046 b 470 1081 432 1065 444 1081 b 676 1022 519 1081 558 1022 b 873 1208 794 1022 873 1104 l 873 1294 l 645 1294 l 645 1283 b 608 1240 645 1263 641 1240 b 408 1300 560 1240 515 1300 b 208 1108 275 1300 208 1223 l 208 1028 l 432 1028 l 432 1046 z "},"Ö":{"ha":1081,"x_min":0,"x_max":0,"o":"m 540 994 b 7 486 183 994 7 817 b 540 -22 7 156 183 -22 b 1074 486 897 -22 1074 156 b 540 994 1074 817 897 994 z m 540 319 b 437 486 472 319 437 378 b 540 653 437 594 472 653 b 643 486 608 653 643 594 b 540 319 643 378 608 319 z m 371 1022 b 517 1161 469 1022 517 1071 b 371 1300 517 1251 469 1300 b 226 1161 274 1300 226 1251 b 371 1022 226 1071 274 1022 z m 709 1022 b 855 1161 807 1022 855 1071 b 709 1300 855 1251 807 1300 b 563 1161 612 1300 563 1251 b 709 1022 563 1071 612 1022 z "},"Ø":{"ha":1086,"x_min":0,"x_max":0,"o":"m 950 858 l 1061 994 l 859 994 l 819 945 b 543 994 744 977 652 994 b 10 486 186 994 10 816 b 137 113 10 324 52 199 l 25 -23 l 227 -23 l 267 26 b 543 -23 342 -6 434 -23 b 1076 486 900 -23 1076 155 b 950 858 1076 647 1034 772 z m 543 319 b 440 486 475 319 440 377 b 543 652 440 594 475 652 b 646 486 611 652 646 594 b 543 319 646 377 611 319 z "},"Ù":{"ha":981,"x_min":0,"x_max":0,"o":"m 556 972 l 556 439 b 490 354 556 392 539 354 b 425 439 442 354 425 392 l 425 972 l 24 972 l 24 422 b 490 -22 24 124 192 -22 b 957 422 789 -22 957 124 l 957 972 z m 748 1020 l 619 1300 l 233 1300 l 471 1020 z "},"Ú":{"ha":981,"x_min":0,"x_max":0,"o":"m 556 972 l 556 439 b 490 354 556 392 539 354 b 425 439 442 354 425 392 l 425 972 l 24 972 l 24 422 b 490 -22 24 124 192 -22 b 957 422 789 -22 957 124 l 957 972 z m 748 1300 l 362 1300 l 233 1020 l 510 1020 z "},"Û":{"ha":981,"x_min":0,"x_max":0,"o":"m 556 972 l 556 439 b 490 354 556 392 539 354 b 425 439 442 354 425 392 l 425 972 l 24 972 l 24 422 b 490 -22 24 124 192 -22 b 957 422 789 -22 957 124 l 957 972 z m 490 1139 l 547 1020 l 851 1020 l 665 1300 l 324 1300 l 130 1020 l 434 1020 z "},"Ü":{"ha":981,"x_min":0,"x_max":0,"o":"m 556 972 l 556 439 b 490 354 556 392 539 354 b 425 439 442 354 425 392 l 425 972 l 24 972 l 24 422 b 490 -22 24 124 192 -22 b 957 422 789 -22 957 124 l 957 972 z m 306 1022 b 451 1161 403 1022 451 1071 b 306 1300 451 1251 403 1300 b 160 1161 208 1300 160 1251 b 306 1022 160 1071 208 1022 z m 643 1022 b 789 1161 741 1022 789 1071 b 643 1300 789 1251 741 1300 b 498 1161 546 1300 498 1251 b 643 1022 498 1071 546 1022 z "},"Ý":{"ha":889,"x_min":0,"x_max":0,"o":"m 542 972 l 471 462 l 410 972 l -17 972 l 193 318 l 315 312 l 144 0 l 601 0 l 904 972 z m 701 1300 l 315 1300 l 186 1020 l 463 1020 z "},"Þ":{"ha":967,"x_min":0,"x_max":0,"o":"m 583 807 l 435 807 l 435 972 l 35 972 l 35 0 l 435 0 l 435 96 l 526 96 b 968 466 721 96 968 205 b 583 807 968 669 832 807 z m 447 305 l 435 305 l 435 522 l 451 522 b 546 414 510 522 546 472 b 447 305 546 355 506 305 z "},"ß":{"ha":954,"x_min":0,"x_max":0,"o":"m 729 533 l 729 554 b 900 739 807 560 900 599 b 557 972 900 904 743 972 l 325 972 b 33 728 142 972 33 875 l 33 0 l 433 0 l 433 647 b 484 694 433 673 448 694 b 551 624 529 694 551 667 b 484 553 551 581 529 553 l 484 553 l 484 490 l 495 490 b 583 403 543 490 584 452 b 487 318 583 346 545 318 l 484 318 l 484 0 l 575 0 b 946 296 785 0 946 82 b 729 533 946 454 847 533 z "},"à":{"ha":951,"x_min":0,"x_max":0,"o":"m 537 799 l 537 601 b 294 821 504 739 426 821 b 14 399 112 821 14 662 b 290 -22 14 135 118 -22 b 537 206 424 -22 503 65 l 537 0 l 918 0 l 918 799 z m 468 300 b 399 399 422 300 399 342 b 468 497 399 457 422 497 b 538 399 514 497 538 457 b 468 300 538 342 514 300 z m 710 869 l 588 1134 l 222 1134 l 448 869 z "},"á":{"ha":953,"x_min":0,"x_max":0,"o":"m 537 799 l 537 601 b 294 821 504 739 426 821 b 14 399 113 821 14 662 b 290 -22 14 135 118 -22 b 538 206 424 -22 503 65 l 538 0 l 918 0 l 918 799 z m 468 300 b 399 399 422 300 399 342 b 468 497 399 457 422 497 b 537 399 514 497 537 457 b 468 300 537 342 514 300 z m 710 1134 l 344 1134 l 222 869 l 484 869 z "},"â":{"ha":953,"x_min":0,"x_max":0,"o":"m 538 799 l 538 601 b 294 821 504 739 426 821 b 14 399 113 821 14 662 b 290 -22 14 135 118 -22 b 538 206 424 -22 503 65 l 538 0 l 918 0 l 918 799 z m 468 300 b 399 399 422 300 399 342 b 468 497 399 457 422 497 b 538 399 514 497 538 457 b 468 300 538 342 514 300 z m 474 981 l 527 869 l 815 869 l 639 1134 l 316 1134 l 132 869 l 420 869 z "},"ã":{"ha":953,"x_min":0,"x_max":0,"o":"m 538 799 l 538 601 b 294 821 504 739 426 821 b 14 399 113 821 14 662 b 290 -22 14 135 118 -22 b 538 206 424 -22 503 65 l 538 0 l 918 0 l 918 799 z m 468 300 b 399 399 422 300 399 342 b 468 497 399 457 422 497 b 538 399 514 497 538 457 b 468 300 538 342 514 300 z m 379 894 b 416 926 379 911 391 926 b 611 871 462 926 500 871 b 798 1047 723 871 798 948 l 798 1128 l 582 1128 l 582 1117 b 547 1077 582 1099 578 1077 b 357 1134 501 1077 459 1134 b 167 952 231 1134 167 1061 l 167 876 l 379 876 l 379 894 z "},"ä":{"ha":953,"x_min":0,"x_max":0,"o":"m 537 799 l 537 601 b 294 821 504 739 426 821 b 14 399 113 821 14 662 b 290 -22 14 135 118 -22 b 538 206 424 -22 503 65 l 538 0 l 918 0 l 918 799 z m 468 300 b 399 399 422 300 399 342 b 468 497 399 457 422 497 b 537 399 514 497 537 457 b 468 300 537 342 514 300 z m 313 871 b 452 1002 406 871 452 917 b 313 1134 452 1088 406 1134 b 175 1002 221 1134 175 1088 b 313 871 175 917 221 871 z m 634 871 b 772 1002 726 871 772 917 b 634 1134 772 1088 726 1134 b 495 1002 541 1134 495 1088 b 634 871 495 917 541 871 z "},"å":{"ha":953,"x_min":0,"x_max":0,"o":"m 537 799 l 537 601 b 294 821 504 739 426 821 b 14 399 113 821 14 662 b 290 -22 14 135 118 -22 b 538 206 424 -22 503 65 l 538 0 l 918 0 l 918 799 z m 468 300 b 399 399 422 300 399 342 b 468 497 399 457 422 497 b 537 399 514 497 537 457 b 468 300 537 342 514 300 z m 466 824 b 652 1001 590 824 652 886 b 466 1179 652 1117 590 1179 b 280 1001 341 1179 280 1117 b 466 824 280 886 341 824 z m 466 1043 b 510 1001 496 1043 510 1029 b 466 959 510 974 496 959 b 422 1001 436 959 422 974 b 466 1043 422 1029 436 1043 z "},"æ":{"ha":1363,"x_min":0,"x_max":0,"o":"m 1346 546 b 964 799 1346 700 1197 799 l 538 799 l 538 601 b 294 821 504 739 426 821 b 14 399 112 821 14 662 b 290 -22 14 135 118 -22 b 538 206 424 -22 503 65 l 538 0 l 954 0 b 1326 101 1093 0 1261 46 l 1328 421 l 1308 421 b 1056 357 1253 385 1122 357 b 896 444 972 357 900 388 l 1333 444 b 1346 546 1339 469 1346 511 z m 468 300 b 399 399 422 300 399 342 b 468 497 399 457 422 497 b 537 399 514 497 537 457 b 468 300 537 342 514 300 z m 1000 501 l 886 501 l 886 512 b 953 572 886 542 910 572 b 1004 528 982 572 1004 554 b 1000 501 1004 519 1004 511 z "},"ç":{"ha":761,"x_min":0,"x_max":0,"o":"m 732 38 l 725 378 l 706 378 b 501 325 656 350 560 325 b 367 399 424 325 367 356 b 483 469 367 444 411 469 b 706 427 544 469 664 444 l 724 427 l 733 769 b 435 821 674 795 533 821 b 8 399 157 821 8 663 b 269 4 8 198 102 58 l 197 -96 l 340 -151 b 366 -137 347 -142 355 -137 b 393 -161 382 -137 393 -148 b 367 -187 393 -176 383 -187 b 342 -167 355 -187 343 -180 l 160 -167 b 369 -296 160 -236 206 -296 b 582 -165 532 -296 582 -239 b 438 -53 582 -91 528 -53 l 472 -21 b 732 38 578 -17 674 12 z "},"è":{"ha":833,"x_min":0,"x_max":0,"o":"m 817 546 b 435 821 817 700 668 821 b 8 399 186 821 8 662 b 425 -22 8 135 176 -22 b 797 101 564 -22 732 46 l 799 421 l 779 421 b 526 357 724 385 593 357 b 367 444 443 357 371 388 l 804 444 b 817 546 810 469 817 511 z m 471 501 l 357 501 l 357 512 b 424 572 357 542 381 572 b 475 528 453 572 475 554 b 471 501 475 519 475 511 z m 656 869 l 534 1134 l 169 1134 l 394 869 z "},"é":{"ha":833,"x_min":0,"x_max":0,"o":"m 817 546 b 435 821 817 700 668 821 b 8 399 186 821 8 662 b 425 -22 8 135 176 -22 b 797 101 564 -22 732 46 l 799 421 l 779 421 b 526 357 724 385 593 357 b 367 444 443 357 371 388 l 804 444 b 817 546 810 469 817 511 z m 471 501 l 357 501 l 357 512 b 424 572 357 542 381 572 b 475 528 453 572 475 554 b 471 501 475 519 475 511 z m 656 1134 l 291 1134 l 169 869 l 431 869 z "},"ê":{"ha":833,"x_min":0,"x_max":0,"o":"m 817 546 b 435 821 817 700 668 821 b 8 399 186 821 8 662 b 425 -22 8 135 176 -22 b 797 101 564 -22 732 46 l 799 421 l 779 421 b 526 357 724 385 593 357 b 367 444 443 357 371 388 l 804 444 b 817 546 810 469 817 511 z m 471 501 l 357 501 l 357 512 b 424 572 357 542 381 572 b 475 528 453 572 475 554 b 471 501 475 519 475 511 z m 413 981 l 466 869 l 754 869 l 578 1134 l 255 1134 l 71 869 l 359 869 z "},"ë":{"ha":833,"x_min":0,"x_max":0,"o":"m 817 546 b 435 821 817 700 668 821 b 8 399 186 821 8 662 b 425 -22 8 135 176 -22 b 797 101 564 -22 732 46 l 799 421 l 779 421 b 526 357 724 385 593 357 b 367 444 443 357 371 388 l 804 444 b 817 546 810 469 817 511 z m 471 501 l 357 501 l 357 512 b 424 572 357 542 381 572 b 475 528 453 572 475 554 b 471 501 475 519 475 511 z m 252 871 b 391 1002 345 871 391 917 b 252 1134 391 1088 345 1134 b 114 1002 160 1134 114 1088 b 252 871 114 917 160 871 z m 573 871 b 711 1002 665 871 711 917 b 573 1134 711 1088 665 1134 b 434 1002 480 1134 434 1088 b 573 871 434 917 480 871 z "},"ì":{"ha":449,"x_min":0,"x_max":0,"o":"m 414 0 l 414 799 l 34 799 l 34 0 z m 396 869 l 274 1134 l -92 1134 l 134 869 z "},"í":{"ha":447,"x_min":0,"x_max":0,"o":"m 414 0 l 414 799 l 33 799 l 33 0 z m 527 1134 l 162 1134 l 39 869 l 302 869 z "},"î":{"ha":447,"x_min":0,"x_max":0,"o":"m 414 0 l 414 799 l 33 799 l 33 0 z m 223 981 l 277 869 l 565 869 l 389 1134 l 66 1134 l -118 869 l 170 869 z "},"ï":{"ha":447,"x_min":0,"x_max":0,"o":"m 414 0 l 414 799 l 33 799 l 33 0 z m 201 1002 b 63 1134 201 1088 156 1134 b -75 1002 -29 1134 -75 1088 b 63 871 -75 917 -29 871 b 201 1002 156 871 201 917 z m 383 1134 b 245 1002 291 1134 245 1088 b 383 871 245 917 291 871 b 522 1002 476 871 522 917 b 383 1134 522 1088 476 1134 z "},"ñ":{"ha":944,"x_min":0,"x_max":0,"o":"m 701 821 b 414 590 533 821 435 707 l 414 799 l 33 799 l 33 0 l 414 0 l 414 454 b 476 511 415 486 444 511 b 532 456 510 511 532 489 l 532 0 l 913 0 l 913 615 b 701 821 913 740 826 821 z m 370 894 b 406 926 370 911 381 926 b 602 871 453 926 490 871 b 788 1047 713 871 788 948 l 788 1128 l 573 1128 l 573 1117 b 537 1077 573 1099 569 1077 b 348 1134 491 1077 449 1134 b 158 952 222 1134 158 1061 l 158 876 l 370 876 z "},"ò":{"ha":939,"x_min":0,"x_max":0,"o":"m 469 821 b 8 399 164 821 8 662 b 469 -22 8 135 164 -22 b 931 399 775 -22 931 135 b 469 821 931 662 775 821 z m 469 275 b 389 399 415 275 389 322 b 469 522 389 476 415 522 b 550 399 524 522 550 476 b 469 275 550 322 524 275 z m 633 869 l 511 1134 l 145 1134 l 370 869 z "},"ó":{"ha":939,"x_min":0,"x_max":0,"o":"m 469 821 b 8 399 164 821 8 662 b 469 -22 8 135 164 -22 b 931 399 775 -22 931 135 b 469 821 931 662 775 821 z m 469 275 b 389 399 415 275 389 322 b 469 522 389 476 415 522 b 550 399 524 522 550 476 b 469 275 550 322 524 275 z m 763 1134 l 397 1134 l 275 869 l 537 869 z "},"ô":{"ha":939,"x_min":0,"x_max":0,"o":"m 469 821 b 8 399 164 821 8 662 b 469 -22 8 135 164 -22 b 931 399 775 -22 931 135 b 469 821 931 662 775 821 z m 469 275 b 389 399 415 275 389 322 b 469 522 389 476 415 522 b 550 399 524 522 550 476 b 469 275 550 322 524 275 z m 469 981 l 523 869 l 811 869 l 635 1134 l 312 1134 l 128 869 l 416 869 z "},"õ":{"ha":939,"x_min":0,"x_max":0,"o":"m 469 821 b 8 399 164 821 8 662 b 469 -22 8 135 164 -22 b 931 399 775 -22 931 135 b 469 821 931 662 775 821 z m 469 275 b 389 399 415 275 389 322 b 469 522 389 476 415 522 b 550 399 524 522 550 476 b 469 275 550 322 524 275 z m 367 894 b 403 926 367 911 378 926 b 598 871 449 926 487 871 b 785 1047 710 871 785 948 l 785 1128 l 569 1128 l 569 1117 b 534 1077 569 1099 565 1077 b 344 1134 488 1077 446 1134 b 154 952 218 1134 154 1061 l 154 876 l 367 876 l 367 894 z "},"ö":{"ha":939,"x_min":0,"x_max":0,"o":"m 469 821 b 8 399 164 821 8 662 b 469 -22 8 135 164 -22 b 931 399 775 -22 931 135 b 469 821 931 662 775 821 z m 469 275 b 389 399 415 275 389 322 b 469 522 389 476 415 522 b 550 399 524 522 550 476 b 469 275 550 322 524 275 z m 309 871 b 447 1002 402 871 447 917 b 309 1134 447 1088 402 1134 b 171 1002 217 1134 171 1088 b 309 871 171 917 217 871 z m 630 871 b 768 1002 722 871 768 917 b 630 1134 768 1088 722 1134 b 491 1002 537 1134 491 1088 b 630 871 491 917 537 871 z "},"ø":{"ha":946,"x_min":0,"x_max":0,"o":"m 820 706 l 914 820 l 723 820 l 694 784 b 472 820 632 808 558 820 b 11 398 167 820 11 662 b 124 92 11 268 49 164 l 30 -23 l 221 -23 l 251 13 b 472 -23 313 -10 386 -23 b 933 398 778 -23 933 134 b 820 706 933 529 895 633 z m 472 275 b 392 398 418 275 392 322 b 472 522 392 476 418 522 b 553 398 526 522 553 476 b 472 275 553 322 526 275 z "},"ù":{"ha":943,"x_min":0,"x_max":0,"o":"m 528 799 l 528 344 b 465 287 526 313 497 287 b 410 343 432 287 410 310 l 410 799 l 29 799 l 29 183 b 240 -22 29 58 115 -22 b 528 208 408 -22 507 96 l 528 0 l 908 0 l 908 799 z m 713 869 l 591 1134 l 225 1134 l 450 869 z "},"ú":{"ha":943,"x_min":0,"x_max":0,"o":"m 528 799 l 528 344 b 465 287 526 313 497 287 b 410 343 432 287 410 310 l 410 799 l 29 799 l 29 183 b 240 -22 29 58 115 -22 b 528 208 408 -22 507 96 l 528 0 l 908 0 l 908 799 z m 713 1134 l 347 1134 l 225 869 l 487 869 z "},"û":{"ha":943,"x_min":0,"x_max":0,"o":"m 528 799 l 528 344 b 465 287 526 313 497 287 b 410 343 432 287 410 310 l 410 799 l 29 799 l 29 183 b 240 -22 29 58 115 -22 b 528 208 408 -22 507 96 l 528 0 l 908 0 l 908 799 z m 469 981 l 522 869 l 810 869 l 634 1134 l 311 1134 l 127 869 l 415 869 z "},"ü":{"ha":943,"x_min":0,"x_max":0,"o":"m 528 799 l 528 344 b 465 287 526 313 497 287 b 410 343 432 287 410 310 l 410 799 l 29 799 l 29 183 b 240 -22 29 58 115 -22 b 528 208 408 -22 507 96 l 528 0 l 908 0 l 908 799 z m 304 871 b 442 1002 397 871 442 917 b 304 1134 442 1088 397 1134 b 166 1002 212 1134 166 1088 b 304 871 166 917 212 871 z m 624 871 b 762 1002 717 871 762 917 b 624 1134 762 1088 717 1134 b 486 1002 532 1134 486 1088 b 624 871 486 917 532 871 z "},"ý":{"ha":910,"x_min":0,"x_max":0,"o":"m 443 276 l 426 276 l 376 799 l -8 799 l 136 232 b 218 139 144 194 168 139 b 322 181 253 139 300 158 l 333 171 l 163 -157 l 640 -157 l 919 799 l 515 799 z m 699 1134 l 334 1134 l 212 869 l 474 869 z "},"þ":{"ha":953,"x_min":0,"x_max":0,"o":"m 661 821 b 414 593 528 821 449 733 l 414 972 l 33 972 l 33 -154 l 414 -154 l 414 197 b 657 -22 447 60 525 -22 b 938 400 839 -22 938 136 b 661 821 938 664 833 821 z m 483 301 b 414 400 438 301 414 342 b 483 499 414 457 438 499 b 553 400 529 499 553 457 b 483 301 553 342 529 301 z "},"ÿ":{"ha":910,"x_min":0,"x_max":0,"o":"m 443 276 l 426 276 l 376 799 l -8 799 l 136 232 b 218 139 144 194 168 139 b 322 181 253 139 300 158 l 333 171 l 163 -157 l 640 -157 l 919 799 l 515 799 z m 295 871 b 434 1002 388 871 434 917 b 295 1134 434 1088 388 1134 b 157 1002 203 1134 157 1088 b 295 871 157 917 203 871 z m 616 871 b 754 1002 708 871 754 917 b 616 1134 754 1088 708 1134 b 478 1002 523 1134 478 1088 b 616 871 478 917 523 871 z "},"Č":{"ha":942,"x_min":0,"x_max":0,"o":"m 884 474 b 593 408 802 440 682 408 b 426 500 515 408 426 425 b 589 579 426 567 511 579 b 884 518 675 579 806 550 l 895 518 l 916 912 b 521 994 834 953 683 994 b 7 486 206 994 7 817 b 497 -22 7 156 179 -22 b 913 61 683 -22 815 19 l 901 474 l 884 474 z m 703 1020 l 897 1300 l 593 1300 l 536 1181 l 480 1300 l 176 1300 l 362 1020 z "},"č":{"ha":761,"x_min":0,"x_max":0,"o":"m 483 468 b 706 426 544 468 664 443 l 724 426 l 733 768 b 435 821 674 794 533 821 b 8 399 157 821 8 663 b 444 -22 8 135 168 -22 b 732 38 561 -22 669 10 l 725 378 l 706 378 b 501 325 656 350 560 325 b 367 399 424 325 367 356 b 483 468 367 443 411 468 z m 595 854 l 789 1134 l 485 1134 l 428 1016 l 372 1134 l 68 1134 l 254 854 z "},"Ď":{"ha":975,"x_min":0,"x_max":0,"o":"m 471 972 l 35 972 l 35 0 l 483 0 b 969 486 794 0 971 211 b 471 972 968 788 768 972 z m 436 306 l 436 681 b 557 494 514 681 557 606 b 436 306 557 383 513 306 z m 603 1020 l 796 1300 l 493 1300 l 436 1181 l 380 1300 l 76 1300 l 262 1020 z "},"ď":{"ha":1128,"x_min":0,"x_max":0,"o":"m 538 972 l 538 601 b 294 821 504 739 426 821 b 14 399 113 821 14 662 b 290 -22 14 135 118 -22 b 538 206 424 -22 503 65 l 538 0 l 918 0 l 918 972 z m 468 300 b 399 399 422 300 399 342 b 468 497 399 457 422 497 b 538 399 514 497 538 457 b 468 300 538 342 514 300 z m 982 972 l 918 692 l 1081 692 l 1255 972 z "},"đ":{"ha":978,"x_min":0,"x_max":0,"o":"m 918 896 l 918 972 l 537 972 l 537 896 l 414 896 l 414 794 l 537 794 l 537 601 b 294 821 504 739 426 821 b 14 399 112 821 14 662 b 290 -22 14 135 118 -22 b 538 206 424 -22 503 65 l 538 0 l 918 0 l 918 794 l 976 794 l 976 896 z m 468 300 b 399 399 422 300 399 342 b 468 497 399 457 422 497 b 537 399 514 497 537 457 b 468 300 537 342 514 300 z "},"Ľ":{"ha":772,"x_min":0,"x_max":0,"o":"m 436 972 l 35 972 l 35 0 l 744 0 l 744 369 l 436 369 z m 776 972 l 504 972 l 439 692 l 603 692 z "},"ľ":{"ha":624,"x_min":0,"x_max":0,"o":"m 33 972 l 33 0 l 414 0 l 414 972 z m 478 972 l 414 692 l 577 692 l 751 972 z "},"Ł":{"ha":788,"x_min":0,"x_max":0,"o":"m 474 369 l 474 464 l 657 538 l 657 806 l 474 732 l 474 972 l 73 972 l 73 570 l 11 545 l 11 277 l 73 302 l 73 0 l 783 0 l 783 369 z "},"ł":{"ha":528,"x_min":0,"x_max":0,"o":"m 517 832 l 455 801 l 455 972 l 74 972 l 74 604 l 13 572 l 13 304 l 74 336 l 74 0 l 455 0 l 455 533 l 517 565 z "},"Ň":{"ha":1058,"x_min":0,"x_max":0,"o":"m 640 972 l 640 593 l 404 972 l 35 972 l 35 0 l 417 0 l 417 415 l 675 0 l 1022 0 l 1022 972 z m 695 1020 l 889 1300 l 585 1300 l 528 1181 l 472 1300 l 168 1300 l 354 1020 z "},"ň":{"ha":944,"x_min":0,"x_max":0,"o":"m 701 821 b 414 590 533 821 435 707 l 414 799 l 33 799 l 33 0 l 414 0 l 414 454 b 476 511 415 486 444 511 b 532 456 510 511 532 489 l 532 0 l 913 0 l 913 615 b 701 821 913 740 826 821 z m 639 854 l 833 1134 l 529 1134 l 473 1016 l 416 1134 l 113 1134 l 298 854 z "},"Œ":{"ha":1361,"x_min":0,"x_max":0,"o":"m 953 351 l 953 418 l 1259 418 l 1259 587 l 953 587 l 953 662 l 1306 662 l 1306 972 l 552 972 b 7 486 185 972 7 817 b 552 0 7 156 185 0 l 1345 0 l 1345 351 z m 552 327 b 437 486 473 327 437 378 b 552 646 437 594 473 646 z "},"œ":{"ha":1375,"x_min":0,"x_max":0,"o":"m 1358 546 b 976 821 1358 700 1210 821 b 741 762 887 821 807 800 b 469 821 670 800 579 821 b 8 399 164 821 8 662 b 469 -22 8 135 164 -22 b 737 35 577 -22 667 -3 b 967 -22 801 -3 879 -22 b 1339 101 1106 -22 1274 46 l 1340 421 l 1321 421 b 1068 357 1265 385 1135 357 b 908 444 985 357 912 388 l 1346 444 b 1358 546 1351 469 1358 511 z m 469 275 b 389 399 415 275 389 322 b 469 522 389 476 415 522 b 550 399 524 522 550 476 b 469 275 550 322 524 275 z m 1013 501 l 899 501 l 899 512 b 965 572 899 542 922 572 b 1017 528 994 572 1017 554 b 1013 501 1017 519 1017 511 z "},"Š":{"ha":771,"x_min":0,"x_max":0,"o":"m 389 632 b 459 669 389 660 419 669 b 687 619 529 669 633 641 l 695 619 l 695 958 b 406 997 591 984 496 997 b 29 695 160 997 29 880 b 444 358 29 347 444 455 b 384 319 444 326 415 319 b 36 449 275 319 103 390 l 22 451 l 22 41 b 386 -22 94 13 245 -22 b 765 288 620 -22 765 85 b 389 632 765 599 389 548 z m 560 1021 l 754 1301 l 450 1301 l 394 1182 l 337 1301 l 33 1301 l 219 1021 z "},"š":{"ha":681,"x_min":0,"x_max":0,"o":"m 328 486 b 428 527 328 519 380 527 b 622 487 476 527 568 518 l 622 763 b 341 821 550 799 443 821 b 24 559 177 821 24 743 b 371 304 24 278 371 376 b 273 262 371 263 314 262 b 24 345 211 262 81 295 l 24 29 b 323 -22 103 -4 215 -22 b 670 219 529 -22 670 44 b 328 486 670 498 328 396 z m 505 869 l 688 1134 l 401 1134 l 347 1021 l 293 1134 l 6 1134 l 182 869 z "},"Ť":{"ha":763,"x_min":0,"x_max":0,"o":"m -4 972 l -4 646 l 181 646 l 181 0 l 582 0 l 582 646 l 767 646 l 767 972 z m 548 1020 l 741 1300 l 438 1300 l 381 1181 l 325 1300 l 21 1300 l 207 1020 z "},"ť":{"ha":638,"x_min":0,"x_max":0,"o":"m 546 358 b 469 436 506 358 469 383 l 469 532 l 600 532 l 600 799 l 444 799 l 444 986 l 256 986 b 4 703 240 822 115 726 l 1 703 l 1 532 l 90 532 l 90 275 b 351 -22 90 113 174 -22 b 615 96 458 -22 558 25 l 615 378 l 601 378 b 546 358 589 365 569 358 z m 784 1101 l 511 1101 l 447 821 l 610 821 z "},"Ÿ":{"ha":889,"x_min":0,"x_max":0,"o":"m 542 972 l 471 462 l 410 972 l -17 972 l 193 318 l 315 312 l 144 0 l 601 0 l 904 972 z m 275 1022 b 421 1161 372 1022 421 1071 b 275 1300 421 1251 372 1300 b 129 1161 177 1300 129 1251 b 275 1022 129 1071 177 1022 z m 613 1022 b 758 1161 710 1022 758 1071 b 613 1300 758 1251 710 1300 b 467 1161 515 1300 467 1251 b 613 1022 467 1071 515 1022 z "},"Ž":{"ha":815,"x_min":0,"x_max":0,"o":"m 796 703 l 794 972 l 32 972 l 32 642 l 286 640 l 21 329 l 21 0 l 792 0 l 792 328 l 472 328 z m 575 1020 l 769 1300 l 465 1300 l 408 1181 l 352 1300 l 48 1300 l 234 1020 z "},"ž":{"ha":879,"x_min":0,"x_max":0,"o":"m 853 508 l 853 799 l 36 799 l 36 431 b 463 514 143 446 340 463 l 469 500 b 28 332 369 447 169 365 l 28 0 l 846 0 l 846 351 l 354 287 l 354 304 b 853 508 494 333 753 447 z m 598 869 l 782 1134 l 494 1134 l 440 1021 l 387 1134 l 99 1134 l 275 869 z "},"ẞ":{"ha":949,"x_min":0,"x_max":0,"o":"m 721 533 l 721 554 b 884 739 799 560 884 606 l 884 972 l 320 972 b 29 728 138 972 29 875 l 29 0 l 429 0 l 429 647 b 480 694 429 673 444 694 l 547 694 l 547 624 b 480 553 547 581 525 553 l 480 553 l 480 490 l 491 490 b 579 403 539 490 579 452 b 483 318 579 346 541 318 l 480 318 l 480 0 l 571 0 b 942 296 781 0 942 82 b 721 533 942 454 839 533 z "},"–":{"ha":658,"x_min":0,"x_max":0,"o":"m 25 602 l 25 310 l 633 310 l 633 602 z "},"—":{"ha":932,"x_min":0,"x_max":0,"o":"m 25 602 l 25 310 l 906 310 l 906 602 z "},"“":{"ha":792,"x_min":0,"x_max":0,"o":"m 626 780 b 551 761 589 780 571 775 l 539 783 b 743 833 587 822 672 833 l 736 992 l 701 992 b 404 648 499 992 404 880 b 588 454 404 534 483 454 b 766 623 694 454 766 522 b 626 780 766 727 701 780 z m 246 780 b 171 761 210 780 191 775 l 160 783 b 364 833 208 822 293 833 l 357 992 l 322 992 b 25 648 120 992 25 880 b 209 454 25 534 104 454 b 387 623 315 454 387 522 b 246 780 387 727 322 780 z "},"”":{"ha":792,"x_min":0,"x_max":0,"o":"m 203 992 b 25 823 96 992 25 924 b 165 666 25 719 90 666 b 240 685 201 666 220 671 l 251 663 b 48 612 204 624 119 612 l 55 454 l 90 454 b 387 798 292 454 387 566 b 203 992 387 912 308 992 z m 582 992 b 404 823 475 992 404 924 b 544 666 404 719 469 666 b 619 685 581 666 599 671 l 631 663 b 427 612 583 624 498 612 l 434 454 l 469 454 b 766 798 671 454 766 566 b 582 992 766 912 687 992 z "},"€":{"ha":854,"x_min":0,"x_max":0,"o":"m 673 590 b 819 569 726 590 779 585 l 819 972 b 605 994 753 985 680 994 b 94 546 310 994 117 838 l 33 546 l 33 508 l 92 508 b 91 486 91 501 91 493 b 91 481 91 484 91 483 l 33 481 l 33 444 l 92 444 b 582 -23 106 140 277 -23 b 819 2 672 -23 751 -13 l 819 418 b 677 397 773 401 719 397 b 529 444 609 397 555 410 l 795 444 l 795 481 l 512 481 b 511 500 511 487 511 493 b 511 508 511 503 511 505 l 795 508 l 795 546 l 525 546 b 673 590 549 578 603 590 z "},"™":{"ha":515,"x_min":0,"x_max":0,"o":"m 381 972 l 354 880 l 330 972 l 223 972 l 223 744 l 312 744 l 312 872 l 333 788 l 376 788 l 401 880 l 401 744 l 491 744 l 491 972 z m 21 896 l 64 896 l 64 744 l 158 744 l 158 896 l 201 896 l 201 972 l 21 972 z "},"":{"ha":903,"x_min":0,"x_max":0,"o":"m 666 817 b 804 775 704 789 753 775 b 1017 968 916 775 1017 840 b 804 1163 1017 1096 916 1163 b 592 968 694 1163 592 1096 b 613 877 592 933 600 903 b 550 814 592 859 570 836 b 430 821 513 818 473 821 b 19 551 160 821 19 719 b 254 299 19 423 99 335 l 195 298 b 49 206 127 296 49 265 b 324 132 49 135 193 132 b 517 82 434 132 517 116 b 384 35 517 55 470 35 b 14 118 270 35 102 63 l 10 -167 b 399 -221 104 -199 260 -221 b 879 36 534 -221 879 -208 b 560 249 879 189 755 249 b 192 220 453 249 213 220 b 178 228 182 220 178 223 b 195 239 178 235 185 239 b 665 312 214 239 541 270 l 660 312 b 854 551 789 353 854 436 b 643 795 854 670 784 755 b 666 817 650 803 658 810 z m 406 565 b 466 500 445 565 466 536 b 406 434 466 465 445 434 b 346 500 367 434 346 465 b 406 565 346 536 367 565 z "},"":{"ha":628,"x_min":0,"x_max":0,"o":"m 546 343 b 469 421 506 343 469 368 l 469 532 l 600 532 l 600 799 l 444 799 l 444 986 l 256 986 b 4 703 240 822 115 726 l 1 703 l 1 532 l 90 532 l 90 275 b 355 0 90 113 177 0 b 600 0 462 0 600 0 l 600 343 l 546 343 z "},"":{"ha":618,"x_min":0,"x_max":0,"o":"m 552 343 b 476 421 512 343 476 368 l 476 532 l 591 532 l 591 799 l 451 799 l 451 986 l 97 986 l 97 798 l 4 798 l 4 532 l 97 532 l 97 275 b 362 0 97 113 184 0 b 592 0 469 0 592 0 l 592 343 z "},"":{"ha":814,"x_min":0,"x_max":0,"o":"m 33 536 l 49 536 b 339 614 106 575 257 614 b 396 579 374 614 396 608 b 32 337 396 528 200 429 l 32 0 l 774 0 l 774 344 l 357 314 l 357 325 b 785 650 478 351 785 394 b 392 994 785 871 643 994 b 33 886 254 994 110 947 z "},"":{"ha":821,"x_min":0,"x_max":0,"o":"m 778 972 l 61 972 l 61 692 l 397 692 l 397 681 l 167 572 l 192 436 b 324 451 226 444 281 451 b 435 403 393 451 435 440 b 314 340 435 361 379 340 b 54 407 235 340 129 365 l 26 54 b 364 -22 99 15 225 -22 b 793 306 610 -22 793 50 b 492 542 793 496 656 546 l 492 551 l 778 683 z "},"":{"ha":888,"x_min":0,"x_max":0,"o":"m 405 565 b 465 500 444 565 465 536 b 405 435 465 465 444 435 b 346 500 367 435 346 465 b 405 565 346 536 367 565 z m 643 794 b 861 775 700 829 814 817 l 861 1121 b 550 814 639 1121 550 982 b 429 821 512 818 474 821 b 19 551 160 821 19 719 b 254 299 19 424 99 335 l 194 297 b 49 205 126 296 49 264 b 324 132 49 135 193 132 b 517 82 433 132 517 115 b 383 35 517 54 469 35 b 14 118 269 35 101 62 l 10 -167 b 399 -221 104 -199 260 -221 b 879 36 533 -221 879 -208 b 561 249 879 189 755 249 b 192 219 453 249 212 219 b 178 228 182 219 178 222 b 194 239 178 235 185 239 b 665 311 214 239 542 269 l 660 311 b 854 551 789 353 854 436 b 643 794 854 669 783 755 z "},"":{"ha":993,"x_min":0,"x_max":0,"o":"m 561 600 b 453 492 561 536 514 492 l 435 492 l 435 708 l 457 708 b 561 600 518 708 561 664 z m 539 972 l 35 972 l 35 0 l 435 0 l 435 364 b 512 117 487 354 506 206 l 522 0 l 996 0 l 968 99 b 593 399 910 306 825 399 l 593 419 l 594 419 b 950 676 803 419 950 467 b 539 972 950 862 787 972 z "},"":{"ha":842,"x_min":0,"x_max":0,"o":"m 844 972 l 26 972 l 58 615 l 340 632 b 0 15 199 461 62 206 l 0 0 l 796 0 l 796 349 l 533 326 l 844 957 z "},"":{"ha":644,"x_min":0,"x_max":0,"o":"m 555 358 b 479 436 515 358 479 383 l 479 479 l 613 479 l 613 799 l 454 799 l 454 986 l 100 986 l 100 798 l 7 798 l 7 479 l 100 479 l 100 275 b 365 0 100 113 187 0 b 613 0 471 0 613 0 l 613 358 z "},"":{"ha":1001,"x_min":0,"x_max":0,"o":"m 561 600 b 453 492 561 536 514 492 l 435 492 l 435 708 l 457 708 b 561 600 518 708 561 664 z m 539 972 l 35 972 l 35 0 l 435 0 l 435 364 b 512 117 487 354 501 206 l 526 0 l 1005 0 l 972 111 b 593 399 910 317 825 399 l 593 419 l 594 419 b 950 682 803 419 950 474 b 539 972 950 868 787 972 z "},"":{"ha":943,"x_min":0,"x_max":0,"o":"m 493 -22 b 917 61 679 -22 818 18 l 901 474 l 885 474 b 593 408 803 440 682 408 b 422 500 515 408 422 425 b 589 579 422 567 511 579 b 885 518 675 579 807 550 l 896 518 l 918 910 b 508 994 836 950 671 994 b 7 486 193 994 7 797 b 493 -22 7 156 175 -22 z "},"":{"ha":840,"x_min":0,"x_max":0,"o":"m 589 579 b 808 545 649 579 735 565 l 808 955 b 521 994 726 978 624 994 b 7 486 206 994 7 817 b 497 -22 7 156 179 -22 b 808 21 621 -22 724 -4 l 808 445 b 593 408 737 424 655 408 b 426 500 515 408 426 425 b 589 579 426 567 511 579 z "},"":{"ha":571,"x_min":0,"x_max":0,"o":"m 76 0 l 457 0 l 457 479 l 564 479 l 564 799 l 439 799 b 400 817 422 799 400 799 b 465 844 400 835 435 844 b 631 812 517 844 567 833 l 665 1076 b 427 1119 601 1098 516 1119 b 79 812 170 1119 79 965 l 79 799 l 13 799 l 13 479 l 76 479 z "},"":{"ha":808,"x_min":0,"x_max":0,"o":"m 218 -22 b 424 203 337 -22 408 76 l 436 203 l 435 0 l 783 1 l 783 497 b 350 822 783 738 575 822 b 76 774 275 822 142 803 l 81 461 l 96 461 b 246 503 131 486 186 503 b 433 401 333 503 418 469 l 424 394 b 253 432 406 407 371 432 b 7 190 112 432 7 333 b 218 -22 7 49 99 -22 z m 369 275 b 294 315 319 275 294 289 b 369 357 294 343 319 357 b 443 315 419 357 443 343 b 369 275 443 289 419 275 z "},"":{"ha":817,"x_min":0,"x_max":0,"o":"m 322 635 b 421 588 362 635 421 632 b 31 203 421 506 31 517 l 31 0 l 781 0 l 781 364 l 328 339 b 312 346 319 339 312 339 b 786 690 312 392 786 340 b 393 993 786 887 644 993 b 46 928 256 993 125 967 l 54 564 l 69 564 b 322 635 126 603 238 635 z "},"":{"ha":850,"x_min":0,"x_max":0,"o":"m 610 512 b 788 715 707 512 788 603 b 365 994 788 903 606 994 b 49 933 228 994 118 964 l 46 637 l 56 637 b 337 681 117 664 253 681 b 446 631 378 681 446 674 b 361 571 446 588 411 571 l 217 571 l 217 401 l 367 401 b 460 356 417 401 460 388 b 336 299 460 314 401 299 b 40 354 258 299 126 324 l 28 60 b 368 -22 103 21 229 -22 b 828 276 614 -22 828 57 b 610 496 828 410 729 494 z "},"":{"ha":529,"x_min":0,"x_max":0,"o":"m 494 0 l 494 975 l 259 975 b 19 793 223 892 128 810 l 20 556 l 112 556 l 112 0 z "},"":{"ha":660,"x_min":0,"x_max":0,"o":"m 88 275 b 359 0 88 112 181 0 l 636 0 l 636 312 l 544 312 b 467 389 504 312 467 337 l 467 532 l 628 532 l 628 799 l 442 799 l 442 986 l 88 986 l 88 799 l 4 799 l 4 532 l 88 532 z "},"":{"ha":746,"x_min":0,"x_max":0,"o":"m 33 799 l 33 0 l 414 0 l 414 322 l 412 322 b 364 371 388 322 364 342 b 415 415 364 396 383 415 b 465 361 446 415 465 390 l 736 432 b 744 568 743 479 744 532 b 537 821 744 674 711 821 b 333 581 392 821 333 693 l 333 529 l 307 529 l 307 799 z "},"":{"ha":636,"x_min":0,"x_max":0,"o":"m 351 0 b 615 118 458 0 558 47 l 615 400 l 601 400 b 546 381 589 388 569 381 b 469 458 506 381 469 406 l 469 554 l 600 554 l 600 821 l 444 821 l 444 1008 l 256 1008 b 4 725 240 844 115 749 l 1 725 l 1 554 l 90 554 l 90 297 b 351 0 90 135 174 0 z "},"":{"ha":564,"x_min":0,"x_max":0,"o":"m 74 0 l 454 0 l 454 543 l 561 543 l 561 799 l 436 799 b 397 817 419 799 397 799 b 463 840 397 835 432 840 b 636 804 514 840 572 825 l 669 1072 b 417 1115 606 1094 506 1115 b 76 813 160 1115 76 965 l 76 799 l 10 799 l 10 543 l 74 543 z "},"":{"ha":665,"x_min":0,"x_max":0,"o":"m 555 343 b 479 421 515 343 479 368 l 479 479 l 636 479 l 636 799 l 454 799 l 454 986 l 100 986 l 100 798 l 7 798 l 7 479 l 100 479 l 100 275 b 365 0 100 113 187 0 b 636 0 471 0 636 0 l 636 343 z "},"":{"ha":614,"x_min":0,"x_max":0,"o":"m 89 0 l 469 0 l 469 479 l 610 479 l 610 799 l 463 799 b 427 824 446 799 427 806 b 466 852 427 840 438 852 l 617 851 l 617 1122 l 388 1122 b 92 852 187 1122 93 1003 l 92 799 l 10 799 l 10 479 l 89 479 z "},"":{"ha":625,"x_min":0,"x_max":0,"o":"m 89 0 l 469 0 l 469 479 l 622 479 l 622 799 l 463 799 b 427 824 446 799 427 806 b 466 852 427 840 438 852 l 628 851 l 628 1122 l 388 1122 b 92 852 187 1122 93 1003 l 92 799 l 10 799 l 10 479 l 89 479 z "},"":{"ha":665,"x_min":0,"x_max":0,"o":"m 555 332 b 479 410 515 332 479 357 l 479 479 l 636 479 l 636 799 l 454 799 l 454 986 l 100 986 l 100 798 l 7 798 l 7 479 l 100 479 l 100 275 b 365 0 100 113 187 0 b 636 0 471 0 636 0 l 636 332 z "},"":{"ha":664,"x_min":0,"x_max":0,"o":"m 551 324 b 479 387 511 324 479 343 l 479 479 l 636 479 l 636 799 l 454 799 l 454 986 l 100 986 l 100 798 l 7 798 l 7 479 l 100 479 l 100 275 b 365 0 100 113 187 0 b 636 0 471 0 636 0 l 636 324 z "}}}
